<svg width="1584" height="396" viewBox="0 0 1584 396" fill="none" xmlns="http://www.w3.org/2000/svg">
<rect width="1584" height="396" fill="#F5F5F5"/>
<g id="Awesome banner" clip-path="url(#clip0_0_1)">
<rect width="1584" height="396" fill="url(#paint0_linear_0_1)"/>
<ellipse id="Ellipse 2" cx="323" cy="64" rx="285" ry="288" fill="url(#paint1_linear_0_1)" fill-opacity="0.1"/>
<g id="copyright">
<path d="M75.95 334.52L72.30 334.52L72.30 311.16L77.20 311.16L83.70 330.04Q83.60 329.02 83.50 327.62Q83.41 326.23 83.33 324.79Q83.25 323.35 83.25 322.23L83.25 311.16L86.90 311.16L86.90 334.52L82 334.52L75.57 315.64Q75.63 316.57 75.73 317.88Q75.82 319.19 75.89 320.57Q75.95 321.94 75.95 323.10L75.95 334.52M98.80 334.84Q96.46 334.84 94.67 333.96Q92.88 333.08 91.89 331.53Q90.90 329.98 90.90 327.93Q90.90 325.78 92.13 324.18Q93.36 322.58 95.34 322.17L95.34 322.10Q93.65 321.75 92.61 320.38Q91.57 319 91.57 317.11Q91.57 315.26 92.48 313.85Q93.39 312.44 95.02 311.64Q96.66 310.84 98.80 310.84Q100.94 310.84 102.59 311.64Q104.24 312.44 105.15 313.85Q106.06 315.26 106.06 317.11Q106.06 319 105.01 320.38Q103.95 321.75 102.26 322.10L102.26 322.17Q104.24 322.58 105.47 324.18Q106.70 325.78 106.70 327.93Q106.70 329.98 105.71 331.53Q104.72 333.08 102.93 333.96Q101.14 334.84 98.80 334.84M98.80 320.73Q100.30 320.73 101.23 319.82Q102.16 318.90 102.16 317.46Q102.16 315.99 101.23 315.08Q100.30 314.17 98.80 314.17Q97.30 314.17 96.37 315.08Q95.44 315.99 95.44 317.46Q95.44 318.90 96.37 319.82Q97.30 320.73 98.80 320.73M98.80 331.45Q100.56 331.45 101.68 330.42Q102.80 329.40 102.80 327.74Q102.80 326.04 101.68 325Q100.56 323.96 98.80 323.96Q97.04 323.96 95.92 325Q94.80 326.04 94.80 327.74Q94.80 329.40 95.92 330.42Q97.04 331.45 98.80 331.45M114.35 334.52L110.70 334.52L110.70 311.16L115.60 311.16L122.10 330.04Q122 329.02 121.90 327.62Q121.81 326.23 121.73 324.79Q121.65 323.35 121.65 322.23L121.65 311.16L125.30 311.16L125.30 334.52L120.40 334.52L113.97 315.64Q114.03 316.57 114.13 317.88Q114.22 319.19 114.29 320.57Q114.35 321.94 114.35 323.10" fill="white" fill-opacity="0.9"/>
<path d="M161.48 325.24L151.24 325.24L151.24 322.68L161.48 322.68" fill="white" fill-opacity="0.9"/>
<path d="M195.02 334.84Q191.82 334.84 189.96 333.05Q188.11 331.26 188.11 328.12L188.11 317.56Q188.11 314.42 189.96 312.63Q191.82 310.84 195.02 310.84Q198.15 310.84 200.01 312.65Q201.87 314.46 201.87 317.56L198.99 317.56Q198.99 315.58 197.95 314.50Q196.91 313.43 195.02 313.43Q193.13 313.43 192.06 314.50Q190.99 315.58 190.99 317.56L190.99 328.12Q190.99 330.10 192.06 331.18Q193.13 332.25 195.02 332.25Q196.91 332.25 197.95 331.18Q198.99 330.10 198.99 328.12L201.87 328.12Q201.87 331.22 200.01 333.03Q198.15 334.84 195.02 334.84" fill="white" fill-opacity="0.9"/>
<path d="M213.96 334.84Q210.83 334.84 209 333.02Q207.18 331.19 207.18 327.80L207.18 317.88Q207.18 314.49 209 312.66Q210.83 310.84 213.96 310.84Q217.10 310.84 218.92 312.66Q220.75 314.49 220.75 317.85L220.75 327.80Q220.75 331.19 218.92 333.02Q217.10 334.84 213.96 334.84M213.96 332.25Q215.85 332.25 216.86 331.18Q217.87 330.10 217.87 328.12L217.87 317.56Q217.87 315.58 216.86 314.50Q215.85 313.43 213.96 313.43Q212.11 313.43 211.08 314.50Q210.06 315.58 210.06 317.56L210.06 328.12Q210.06 330.10 211.08 331.18Q212.11 332.25 213.96 332.25" fill="white" fill-opacity="0.9"/>
<path d="M228.65 334.52L225.87 334.52L225.87 311.16L230.12 311.16L233.10 321.27L236.20 311.16L240.46 311.16L240.46 334.52L237.67 334.52L237.67 323.48Q237.67 321.91 237.72 319.88Q237.77 317.85 237.87 315.77Q237.96 313.69 238.09 312.02L234.31 324.09L231.82 324.09L228.20 312.31Q228.46 314.68 228.55 317.50Q228.65 320.31 228.65 323.48" fill="white" fill-opacity="0.9"/>
<path d="M247.85 334.52L245.07 334.52L245.07 311.16L249.32 311.16L252.30 321.27L255.40 311.16L259.66 311.16L259.66 334.52L256.87 334.52L256.87 323.48Q256.87 321.91 256.92 319.88Q256.97 317.85 257.07 315.77Q257.16 313.69 257.29 312.02L253.51 324.09L251.02 324.09L247.40 312.31Q247.66 314.68 247.75 317.50Q247.85 320.31 247.85 323.48" fill="white" fill-opacity="0.9"/>
<path d="M271.56 334.84Q268.30 334.84 266.57 333.03Q264.84 331.22 264.84 328.12L264.84 311.16L267.72 311.16L267.72 328.12Q267.72 330.04 268.67 331.16Q269.61 332.28 271.56 332.28Q273.48 332.28 274.44 331.16Q275.40 330.04 275.40 328.12L275.40 311.16L278.28 311.16L278.28 328.12Q278.28 331.26 276.57 333.05Q274.86 334.84 271.56 334.84" fill="white" fill-opacity="0.9"/>
<path d="M286.83 334.52L284.04 334.52L284.04 311.16L287.88 311.16L295.02 331.16Q294.95 330.36 294.87 329.19Q294.79 328.02 294.75 326.73Q294.70 325.43 294.70 324.28L294.70 311.16L297.48 311.16L297.48 334.52L293.64 334.52L286.54 314.52Q286.60 315.29 286.67 316.46Q286.73 317.62 286.78 318.92Q286.83 320.22 286.83 321.40" fill="white" fill-opacity="0.9"/>
<path d="M316.20 334.52L303.72 334.52L303.72 331.90L308.49 331.90L308.49 313.78L303.72 313.78L303.72 311.16L316.20 311.16L316.20 313.78L311.43 313.78L311.43 331.90L316.20 331.90" fill="white" fill-opacity="0.9"/>
<path d="M330.60 334.52L327.72 334.52L327.72 313.78L321.32 313.78L321.32 311.16L337 311.16L337 313.78L330.60 313.78" fill="white" fill-opacity="0.9"/>
<path d="M349.80 334.52L346.92 334.52L346.92 325.78L339.88 311.16L342.95 311.16L347.50 320.76Q347.88 321.56 348.11 322.12Q348.33 322.68 348.39 322.94Q348.46 322.68 348.70 322.12Q348.94 321.56 349.32 320.76L353.87 311.16L356.84 311.16L349.80 325.78" fill="white" fill-opacity="0.9"/>
<path d="M382.83 334.52L380.04 334.52L380.04 311.16L383.88 311.16L391.02 331.16Q390.95 330.36 390.87 329.19Q390.79 328.02 390.75 326.73Q390.70 325.43 390.70 324.28L390.70 311.16L393.48 311.16L393.48 334.52L389.64 334.52L382.54 314.52Q382.60 315.29 382.67 316.46Q382.73 317.62 382.78 318.92Q382.83 320.22 382.83 321.40" fill="white" fill-opacity="0.9"/>
<path d="M405.96 334.84Q402.83 334.84 401 333.02Q399.18 331.19 399.18 327.80L399.18 317.88Q399.18 314.49 401 312.66Q402.83 310.84 405.96 310.84Q409.10 310.84 410.92 312.66Q412.75 314.49 412.75 317.85L412.75 327.80Q412.75 331.19 410.92 333.02Q409.10 334.84 405.96 334.84M405.96 332.25Q407.85 332.25 408.86 331.18Q409.87 330.10 409.87 328.12L409.87 317.56Q409.87 315.58 408.86 314.50Q407.85 313.43 405.96 313.43Q404.11 313.43 403.08 314.50Q402.06 315.58 402.06 317.56L402.06 328.12Q402.06 330.10 403.08 331.18Q404.11 332.25 405.96 332.25" fill="white" fill-opacity="0.9"/>
<path d="M424.55 334.52L418.51 334.52L418.51 311.16L424.55 311.16Q426.83 311.16 428.47 312.02Q430.12 312.89 431.03 314.46Q431.95 316.02 431.95 318.17L431.95 327.48Q431.95 329.62 431.03 331.21Q430.12 332.79 428.47 333.66Q426.83 334.52 424.55 334.52M421.39 313.72L421.39 331.96L424.55 331.96Q426.67 331.96 427.87 330.78Q429.07 329.59 429.07 327.48L429.07 318.17Q429.07 316.09 427.87 314.90Q426.67 313.72 424.55 313.72" fill="white" fill-opacity="0.9"/>
<path d="M451.40 334.52L437.96 334.52L437.96 311.16L451.40 311.16L451.40 313.78L440.81 313.78L440.81 321.02L450.28 321.02L450.28 323.58L440.81 323.58L440.81 331.90L451.40 331.90" fill="white" fill-opacity="0.9"/>
<path d="M463.69 334.84Q460.30 334.84 458.28 333.05Q456.27 331.26 456.27 328.12L459.15 328.12Q459.15 330.07 460.39 331.18Q461.64 332.28 463.69 332.28Q465.67 332.28 466.86 331.13Q468.04 329.98 468.04 328.12Q468.04 326.71 467.29 325.67Q466.54 324.63 465.13 324.25L461.58 323.26Q459.37 322.62 458.11 320.97Q456.84 319.32 456.84 317.08Q456.84 315.22 457.67 313.82Q458.51 312.41 460.01 311.62Q461.51 310.84 463.47 310.84Q465.45 310.84 466.97 311.62Q468.49 312.41 469.35 313.80Q470.22 315.19 470.22 317.02L467.34 317.02Q467.34 315.42 466.25 314.41Q465.16 313.40 463.47 313.40Q461.77 313.40 460.71 314.41Q459.66 315.42 459.66 317.02Q459.66 318.30 460.35 319.21Q461.03 320.12 462.28 320.47L465.93 321.50Q468.27 322.14 469.56 323.91Q470.86 325.69 470.86 328.12Q470.86 331.19 468.91 333.02Q466.95 334.84 463.69 334.84" fill="white" fill-opacity="0.9"/>
</g>
<path d="M74.37 197.64L72.23 197.64L72.23 180.12L77.63 180.12Q79.19 180.12 80.37 180.76Q81.54 181.39 82.19 182.52Q82.84 183.65 82.84 185.16Q82.84 186.94 81.93 188.21Q81.02 189.48 79.50 189.98L83.08 197.64L80.70 197.64L77.27 190.20L74.37 190.20L74.37 197.64M74.37 182.06L74.37 188.26L77.63 188.26Q78.98 188.26 79.79 187.40Q80.61 186.55 80.61 185.16Q80.61 183.74 79.79 182.90Q78.98 182.06 77.63 182.06" fill="white" fill-opacity="0.7"/>
<path d="M90.45 197.88Q88.41 197.88 87.21 196.74Q86.01 195.60 86.01 193.75Q86.01 192.53 86.56 191.62Q87.11 190.70 88.10 190.19Q89.08 189.67 90.35 189.67L94.43 189.67L94.43 188.64Q94.43 186.07 91.62 186.07Q90.38 186.07 89.61 186.53Q88.84 186.98 88.79 187.80L86.63 187.80Q86.75 186.24 88.08 185.22Q89.42 184.20 91.62 184.20Q94.02 184.20 95.31 185.35Q96.59 186.50 96.59 188.57L96.59 197.64L94.46 197.64L94.46 195.24L94.41 195.24Q94.22 196.46 93.18 197.17Q92.15 197.88 90.45 197.88M90.98 196.06Q92.56 196.06 93.50 195.29Q94.43 194.52 94.43 193.20L94.43 191.35L90.59 191.35Q89.54 191.35 88.88 191.99Q88.22 192.62 88.22 193.68Q88.22 194.78 88.95 195.42Q89.68 196.06 90.98 196.06" fill="white" fill-opacity="0.7"/>
<path d="M103.94 201.96L100.96 201.96L100.96 199.99L103.94 199.99Q105.42 199.99 106.25 199.18Q107.08 198.36 107.08 196.90L107.08 186.41L100.84 186.41L100.84 184.44L109.24 184.44L109.24 196.90Q109.24 199.22 107.80 200.59Q106.36 201.96 103.94 201.96M107.92 182.06Q107.13 182.06 106.67 181.66Q106.22 181.25 106.22 180.55Q106.22 179.83 106.67 179.41Q107.13 178.99 107.92 178.99Q108.71 178.99 109.17 179.41Q109.62 179.83 109.62 180.55Q109.62 181.25 109.17 181.66Q108.71 182.06 107.92 182.06" fill="white" fill-opacity="0.7"/>
<path d="M119.25 197.88Q117.21 197.88 116.01 196.74Q114.81 195.60 114.81 193.75Q114.81 192.53 115.36 191.62Q115.91 190.70 116.90 190.19Q117.88 189.67 119.15 189.67L123.23 189.67L123.23 188.64Q123.23 186.07 120.42 186.07Q119.18 186.07 118.41 186.53Q117.64 186.98 117.59 187.80L115.43 187.80Q115.55 186.24 116.88 185.22Q118.22 184.20 120.42 184.20Q122.82 184.20 124.11 185.35Q125.39 186.50 125.39 188.57L125.39 197.64L123.26 197.64L123.26 195.24L123.21 195.24Q123.02 196.46 121.98 197.17Q120.95 197.88 119.25 197.88M119.78 196.06Q121.36 196.06 122.30 195.29Q123.23 194.52 123.23 193.20L123.23 191.35L119.39 191.35Q118.34 191.35 117.68 191.99Q117.02 192.62 117.02 193.68Q117.02 194.78 117.75 195.42Q118.48 196.06 119.78 196.06" fill="white" fill-opacity="0.7"/>
<path d="M135.33 197.83L134.27 197.83Q132.06 197.83 130.85 196.84Q129.64 195.84 129.64 194.02L131.80 194.02Q131.80 194.93 132.45 195.44Q133.10 195.96 134.27 195.96L135.33 195.96Q136.53 195.96 137.19 195.43Q137.85 194.90 137.85 193.94Q137.85 192.24 136.29 192.02L132.64 191.50Q131.30 191.30 130.55 190.38Q129.81 189.46 129.81 187.94Q129.81 186.22 131 185.23Q132.18 184.25 134.27 184.25L135.33 184.25Q137.25 184.25 138.46 185.20Q139.67 186.14 139.77 187.68L137.58 187.68Q137.54 186.98 136.92 186.53Q136.31 186.07 135.33 186.07L134.27 186.07Q133.17 186.07 132.54 186.58Q131.92 187.08 131.92 187.94Q131.92 189.34 133.19 189.53L136.60 190.01Q139.96 190.49 139.96 193.94Q139.96 195.79 138.75 196.81Q137.54 197.83 135.33 197.83" fill="white" fill-opacity="0.7"/>
<path d="M154.36 197.64L150.52 197.64Q148.89 197.64 147.90 196.69Q146.92 195.74 146.92 194.16L146.92 186.41L143.13 186.41L143.13 184.44L146.92 184.44L146.92 180.72L149.08 180.72L149.08 184.44L154.48 184.44L154.48 186.41L149.08 186.41L149.08 194.16Q149.08 194.83 149.48 195.25Q149.87 195.67 150.52 195.67L154.36 195.67" fill="white" fill-opacity="0.7"/>
<path d="M160.77 197.64L158.61 197.64L158.61 180.12L160.77 180.12L160.77 186.96L160.79 186.96Q160.96 185.64 161.87 184.92Q162.78 184.20 164.30 184.20Q166.29 184.20 167.46 185.42Q168.64 186.65 168.64 188.76L168.64 197.64L166.48 197.64L166.48 189.12Q166.48 187.63 165.72 186.83Q164.97 186.02 163.67 186.02Q162.33 186.02 161.55 186.86Q160.77 187.70 160.77 189.24" fill="white" fill-opacity="0.7"/>
<path d="M176.85 197.88Q174.81 197.88 173.61 196.74Q172.41 195.60 172.41 193.75Q172.41 192.53 172.96 191.62Q173.51 190.70 174.50 190.19Q175.48 189.67 176.75 189.67L180.83 189.67L180.83 188.64Q180.83 186.07 178.02 186.07Q176.78 186.07 176.01 186.53Q175.24 186.98 175.19 187.80L173.03 187.80Q173.15 186.24 174.48 185.22Q175.82 184.20 178.02 184.20Q180.42 184.20 181.71 185.35Q182.99 186.50 182.99 188.57L182.99 197.64L180.86 197.64L180.86 195.24L180.81 195.24Q180.62 196.46 179.58 197.17Q178.55 197.88 176.85 197.88M177.38 196.06Q178.96 196.06 179.90 195.29Q180.83 194.52 180.83 193.20L180.83 191.35L176.99 191.35Q175.94 191.35 175.28 191.99Q174.62 192.62 174.62 193.68Q174.62 194.78 175.35 195.42Q176.08 196.06 177.38 196.06" fill="white" fill-opacity="0.7"/>
<path d="M189.57 197.64L187.41 197.64L187.41 184.44L189.57 184.44L189.57 186.96L189.59 186.96Q189.76 185.64 190.67 184.92Q191.58 184.20 193.10 184.20Q195.09 184.20 196.26 185.42Q197.44 186.65 197.44 188.76L197.44 197.64L195.28 197.64L195.28 189.14Q195.28 187.63 194.52 186.83Q193.77 186.02 192.47 186.02Q191.13 186.02 190.35 186.86Q189.57 187.70 189.57 189.24" fill="white" fill-opacity="0.7"/>
<path d="M207.86 187.32L205.77 187.32L205.58 180.12L208.02 180.12" fill="white" fill-opacity="0.7"/>
<path d="M221.73 197.83L220.67 197.83Q218.46 197.83 217.25 196.84Q216.04 195.84 216.04 194.02L218.20 194.02Q218.20 194.93 218.85 195.44Q219.50 195.96 220.67 195.96L221.73 195.96Q222.93 195.96 223.59 195.43Q224.25 194.90 224.25 193.94Q224.25 192.24 222.69 192.02L219.04 191.50Q217.70 191.30 216.95 190.38Q216.21 189.46 216.21 187.94Q216.21 186.22 217.40 185.23Q218.58 184.25 220.67 184.25L221.73 184.25Q223.65 184.25 224.86 185.20Q226.07 186.14 226.17 187.68L223.98 187.68Q223.94 186.98 223.32 186.53Q222.71 186.07 221.73 186.07L220.67 186.07Q219.57 186.07 218.94 186.58Q218.32 187.08 218.32 187.94Q218.32 189.34 219.59 189.53LNaN 190.01Q226.36 190.49 226.36 193.94Q226.36 195.79 225.15 196.81Q223.94 197.83 221.73 197.83" fill="white" fill-opacity="0.7"/>
<path d="M250.10 197.88Q247.55 197.88 246.04 196.54Q244.53 195.19 244.53 192.84L246.69 192.84Q246.69 194.30 247.62 195.13Q248.56 195.96 250.10 195.96Q251.58 195.96 252.47 195.10Q253.36 194.23 253.36 192.84Q253.36 191.78 252.80 191Q252.23 190.22 251.18 189.94L248.51 189.19Q246.86 188.71 245.91 187.48Q244.96 186.24 244.96 184.56Q244.96 183.17 245.58 182.11Q246.21 181.06 247.34 180.47Q248.46 179.88 249.93 179.88Q251.42 179.88 252.56 180.47Q253.70 181.06 254.34 182.10Q254.99 183.14 254.99 184.51L252.83 184.51Q252.83 183.31 252.02 182.56Q251.20 181.80 249.93 181.80Q248.66 181.80 247.86 182.56Q247.07 183.31 247.07 184.51Q247.07 185.47 247.59 186.16Q248.10 186.84 249.04 187.10L251.78 187.87Q253.53 188.35 254.50 189.68Q255.47 191.02 255.47 192.84Q255.47 195.14 254.01 196.51Q252.54 197.88 250.10 197.88" fill="white" fill-opacity="0.7"/>
<path d="M264.40 197.83Q262.02 197.83 260.62 196.44Q259.22 195.05 259.22 192.55L259.22 189.53Q259.22 187.01 260.61 185.63QNaN 184.25 264.40 184.25Q266.80 184.25 268.19 185.63Q269.58 187.01 269.58 189.53L269.58 192.55Q269.58 195.05 268.18 196.44Q266.78 197.83 264.40 197.83M264.40 195.91Q265.82 195.91 266.62 195.12Q267.42 194.33 267.42 192.79L267.42 189.29Q267.42 187.75 266.62 186.96Q265.82 186.17 264.40 186.17Q263.01 186.17 262.19 186.96Q261.38 187.75 261.38 189.29L261.38 192.79Q261.38 194.33 262.19 195.12Q263.01 195.91 264.40 195.91" fill="white" fill-opacity="0.7"/>
<path d="M278.99 197.88Q276.59 197.88 275.15 196.54Q273.71 195.19 273.71 192.84L273.71 189.24Q273.71 186.89 275.15 185.54Q276.59 184.20 278.99 184.20Q281.27 184.20 282.68 185.42Q284.08 186.65 284.15 188.76L281.99 188.76Q281.92 187.49 281.13 186.80Q280.34 186.12 278.99 186.12Q277.58 186.12 276.72 186.92Q275.87 187.73 275.87 189.22L275.87 192.84Q275.87 194.33 276.72 195.14Q277.58 195.96 278.99 195.96Q280.34 195.96 281.13 195.26Q281.92 194.57 281.99 193.32L284.15 193.32Q284.08 195.43 282.68 196.66Q281.27 197.88 278.99 197.88" fill="white" fill-opacity="0.7"/>
<path d="M299.32 197.64L288.04 197.64L288.04 195.67L292.72 195.67L292.72 186.41L288.52 186.41L288.52 184.44L294.88 184.44L294.88 195.67L299.32 195.67L299.32 197.64M293.56 182.06Q292.77 182.06 292.31 181.66Q291.86 181.25 291.86 180.55Q291.86 179.83 292.31 179.41Q292.77 178.99 293.56 178.99Q294.35 178.99 294.81 179.41Q295.26 179.83 295.26 180.55Q295.26 181.25 294.81 181.66Q294.35 182.06 293.56 182.06" fill="white" fill-opacity="0.7"/>
<path d="M306.45 197.88Q304.41 197.88 303.21 196.74Q302.01 195.60 302.01 193.75Q302.01 192.53 302.56 191.62Q303.11 190.70 304.10 190.19Q305.08 189.67 306.35 189.67L310.43 189.67L310.43 188.64Q310.43 186.07 307.62 186.07Q306.38 186.07 305.61 186.53Q304.84 186.98 304.79 187.80L302.63 187.80Q302.75 186.24 304.08 185.22Q305.42 184.20 307.62 184.20Q310.02 184.20 311.31 185.35Q312.59 186.50 312.59 188.57L312.59 197.64L310.46 197.64L310.46 195.24L310.41 195.24Q310.22 196.46 309.18 197.17Q308.15 197.88 306.45 197.88M306.98 196.06Q308.56 196.06 309.50 195.29Q310.43 194.52 310.43 193.20L310.43 191.35L306.59 191.35Q305.54 191.35 304.88 191.99Q304.22 192.62 304.22 193.68Q304.22 194.78 304.95 195.42Q305.68 196.06 306.98 196.06" fill="white" fill-opacity="0.7"/>
<path d="M328 197.64L323.92 197.64Q322.17 197.64 321.12 196.62Q320.08 195.60 320.08 193.92L320.08 182.09L315.52 182.09L315.52 180.12L322.24 180.12L322.24 193.92Q322.24 194.74 322.70 195.20Q323.15 195.67 323.92 195.67L328 195.67" fill="white" fill-opacity="0.7"/>
<path d="M350.08 197.88Q347.56 197.88 346.12 196.46Q344.68 195.05 344.68 192.60L346.84 192.60Q346.84 194.21 347.69 195.08Q348.54 195.96 350.08 195.96Q351.62 195.96 352.47 195.08Q353.32 194.21 353.32 192.60L353.32 180.12L355.48 180.12L355.48 192.60Q355.48 195.05 354.03 196.46Q352.58 197.88 350.08 197.88" fill="white" fill-opacity="0.7"/>
<path d="M365.18 197.88Q362.90 197.88 361.53 196.52Q360.16 195.17 360.16 192.84L360.16 184.44L362.32 184.44L362.32 192.84Q362.32 194.28 363.09 195.13Q363.86 195.98 365.18 195.98Q366.52 195.98 367.30 195.13Q368.08 194.28 368.08 192.84L368.08 184.44L370.24 184.44L370.24 192.84Q370.24 195.17 368.85 196.52Q367.46 197.88 365.18 197.88" fill="white" fill-opacity="0.7"/>
<path d="M380.13 197.83L379.07 197.83Q376.86 197.83 375.65 196.84Q374.44 195.84 374.44 194.02L376.60 194.02Q376.60 194.93 377.25 195.44Q377.90 195.96 379.07 195.96L380.13 195.96Q381.33 195.96 381.99 195.43Q382.65 194.90 382.65 193.94Q382.65 192.24 381.09 192.02L377.44 191.50Q376.10 191.30 375.35 190.38Q374.61 189.46 374.61 187.94Q374.61 186.22 375.80 185.23Q376.98 184.25 379.07 184.25L380.13 184.25Q382.05 184.25 383.26 185.20Q384.47 186.14 384.57 187.68L382.38 187.68Q382.34 186.98 381.72 186.53Q381.11 186.07 380.13 186.07L379.07 186.07Q377.97 186.07 377.34 186.58Q376.72 187.08 376.72 187.94Q376.72 189.34 377.99 189.53L381.40 190.01Q384.76 190.49 384.76 193.94Q384.76 195.79 383.55 196.81Q382.34 197.83 380.13 197.83" fill="white" fill-opacity="0.7"/>
<path d="M399.16 197.64L395.32 197.64Q393.69 197.64 392.70 196.69Q391.72 195.74 391.72 194.16L391.72 186.41L387.93 186.41L387.93 184.44L391.72 184.44L391.72 180.72L393.88 180.72L393.88 184.44L399.28 184.44L399.28 186.41L393.88 186.41L393.88 194.16Q393.88 194.83 394.28 195.25Q394.67 195.67 395.32 195.67L399.16 195.67" fill="white" fill-opacity="0.7"/>
<path d="M414.52 197.64L403.24 197.64L403.24 195.67L407.92 195.67L407.92 186.41L403.72 186.41L403.72 184.44L410.08 184.44L410.08 195.67L414.52 195.67L414.52 197.64M408.76 182.06Q407.97 182.06 407.51 181.66Q407.06 181.25 407.06 180.55Q407.06 179.83 407.51 179.41Q407.97 178.99 408.76 178.99Q409.55 178.99 410.01 179.41Q410.46 179.83 410.46 180.55Q410.46 181.25 410.01 181.66Q409.55 182.06 408.76 182.06" fill="white" fill-opacity="0.7"/>
<path d="M422.99 197.88Q420.59 197.88 419.15 196.54Q417.71 195.19 417.71 192.84L417.71 189.24Q417.71 186.89 419.15 185.54Q420.59 184.20 422.99 184.20Q425.27 184.20 426.68 185.42Q428.08 186.65 428.15 188.76L425.99 188.76Q425.92 187.49 425.13 186.80Q424.34 186.12 422.99 186.12Q421.58 186.12 420.72 186.92Q419.87 187.73 419.87 189.22L419.87 192.84Q419.87 194.33 420.72 195.14Q421.58 195.96 422.99 195.96Q424.34 195.96 425.13 195.26Q425.92 194.57 425.99 193.32L428.15 193.32Q428.08 195.43 426.68 196.66Q425.27 197.88 422.99 197.88" fill="white" fill-opacity="0.7"/>
<path d="M437.20 197.88Q434.87 197.88 433.44 196.48Q432.02 195.07 432.02 192.60L432.02 189.48Q432.02 187.01 433.44 185.60Q434.87 184.20 437.20 184.20Q438.76 184.20 439.92 184.82Q441.09 185.45 441.74 186.58Q442.38 187.70 442.38 189.24L442.38 191.59L434.13 191.59L434.13 192.84Q434.13 194.30 434.97 195.16Q435.81 196.01 437.20 196.01Q438.40 196.01 439.18 195.54Q439.96 195.07 440.13 194.28L442.29 194.28Q442.07 195.94 440.68 196.91Q439.29 197.88 437.20 197.88M434.13 189.24L434.13 189.91L440.27 189.91L440.27 189.24Q440.27 187.68 439.47 186.83Q438.66 185.98 437.20 185.98Q435.74 185.98 434.93 186.83Q434.13 187.68 434.13 189.24" fill="white" fill-opacity="0.7"/>
<path d="M465.54 197.64L461.01 197.64L461.01 180.12L465.54 180.12Q467.25 180.12 468.48 180.77Q469.72 181.42 470.40 182.59Q471.09 183.77 471.09 185.38L471.09 192.36Q471.09 193.97 470.40 195.16Q469.72 196.34 468.48 196.99Q467.25 197.64 465.54 197.64M463.17 182.04L463.17 195.72L465.54 195.72Q467.13 195.72 468.03 194.83Q468.93 193.94 468.93 192.36L468.93 185.38Q468.93 183.82 468.03 182.93Q467.13 182.04 465.54 182.04" fill="white" fill-opacity="0.7"/>
<path d="M480.40 197.88Q478.07 197.88 476.64 196.48Q475.22 195.07 475.22 192.60L475.22 189.48Q475.22 187.01 476.64 185.60Q478.07 184.20 480.40 184.20Q481.96 184.20 483.12 184.82Q484.29 185.45 484.94 186.58Q485.58 187.70 485.58 189.24L485.58 191.59L477.33 191.59L477.33 192.84Q477.33 194.30 478.17 195.16Q479.01 196.01 480.40 196.01Q481.60 196.01 482.38 195.54Q483.16 195.07 483.33 194.28L485.49 194.28Q485.27 195.94 483.88 196.91Q482.49 197.88 480.40 197.88M477.33 189.24L477.33 189.91L483.47 189.91L483.47 189.24Q483.47 187.68 482.67 186.83Q481.86 185.98 480.40 185.98Q478.94 185.98 478.13 186.83Q477.33 187.68 477.33 189.24" fill="white" fill-opacity="0.7"/>
<path d="M491.97 201.96L489.81 201.96L489.81 184.44L491.97 184.44L491.97 186.96L491.99 186.96Q492.16 185.66 493.12 184.93Q494.08 184.20 495.57 184.20Q497.56 184.20 498.74 185.51Q499.91 186.82 499.91 189.10L499.91 192.96Q499.91 195.24 498.74 196.56Q497.56 197.88 495.57 197.88Q494.08 197.88 493.12 197.14Q492.16 196.39 491.99 195.12L491.92 195.12L491.97 198.12L491.97 201.96M494.85 196.01Q496.22 196.01 496.98 195.29Q497.75 194.57 497.75 192.96L497.75 189.12Q497.75 187.49 496.98 186.78Q496.22 186.07 494.85 186.07Q493.53 186.07 492.75 186.91Q491.97 187.75 491.97 189.24L491.97 192.84Q491.97 194.33 492.75 195.17Q493.53 196.01 494.85 196.01" fill="white" fill-opacity="0.7"/>
<path d="M508.05 197.88Q506.01 197.88 504.81 196.74Q503.61 195.60 503.61 193.75Q503.61 192.53 504.16 191.62Q504.71 190.70 505.70 190.19Q506.68 189.67 507.95 189.67L512.03 189.67L512.03 188.64Q512.03 186.07 509.22 186.07Q507.98 186.07 507.21 186.53Q506.44 186.98 506.39 187.80L504.23 187.80Q504.35 186.24 505.68 185.22Q507.02 184.20 509.22 184.20Q511.62 184.20 512.91 185.35Q514.19 186.50 514.19 188.57L514.19 197.64L512.06 197.64L512.06 195.24L512.01 195.24Q511.82 196.46 510.78 197.17Q509.75 197.88 508.05 197.88M508.58 196.06Q510.16 196.06 511.10 195.29Q512.03 194.52 512.03 193.20L512.03 191.35L508.19 191.35Q507.14 191.35 506.48 191.99Q505.82 192.62 505.82 193.68Q505.82 194.78 506.55 195.42Q507.28 196.06 508.58 196.06" fill="white" fill-opacity="0.7"/>
<path d="M521.25 197.64L519.09 197.64L519.09 184.44L521.25 184.44L521.25 186.96L521.30 186.96Q521.46 185.69 522.38 184.94Q523.29 184.20 524.82 184.20Q526.89 184.20 528 185.44Q529.12 186.67 529.12 188.95L529.12 190.08L526.96 190.08L526.96 188.95Q526.96 186.07 524.15 186.07Q522.74 186.07 521.99 186.89Q521.25 187.70 521.25 189.24" fill="white" fill-opacity="0.7"/>
<path d="M543.16 197.64L539.32 197.64Q537.69 197.64 536.70 196.69Q535.72 195.74 535.72 194.16L535.72 186.41L531.93 186.41L531.93 184.44L535.72 184.44L535.72 180.72L537.88 180.72L537.88 184.44L543.28 184.44L543.28 186.41L537.88 186.41L537.88 194.16Q537.88 194.83 538.28 195.25Q538.67 195.67 539.32 195.67L543.16 195.67" fill="white" fill-opacity="0.7"/>
<path d="M548.66 197.64L546.64 197.64L546.64 184.44L548.51 184.44L548.51 186.19L548.56 186.19Q548.68 185.30 549.27 184.75Q549.86 184.20 550.77 184.20Q551.63 184.20 552.23 184.70Q552.83 185.21 553.10 186.07L553.12 186.07Q553.29 185.21 553.88 184.70Q554.46 184.20 555.38 184.20Q556.65 184.20 557.40 185.15Q558.16 186.10 558.16 187.61L558.16 197.64L556.14 197.64L556.14 187.58Q556.14 186.79 555.76 186.32Q555.38 185.86 554.70 185.86Q554.06 185.86 553.67 186.31Q553.29 186.77 553.29 187.56L553.29 197.64L551.51 197.64L551.51 187.58Q551.51 186.79 551.13 186.32Q550.74 185.86 550.10 185.86Q549.42 185.86 549.04 186.31Q548.66 186.77 548.66 187.56" fill="white" fill-opacity="0.7"/>
<path d="M566.80 197.88Q564.47 197.88 563.04 196.48Q561.62 195.07 561.62 192.60L561.62 189.48Q561.62 187.01 563.04 185.60Q564.47 184.20 566.80 184.20Q568.36 184.20 569.52 184.82Q570.69 185.45 571.34 186.58Q571.98 187.70 571.98 189.24L571.98 191.59L563.73 191.59L563.73 192.84Q563.73 194.30 564.57 195.16Q565.41 196.01 566.80 196.01Q568 196.01 568.78 195.54Q569.56 195.07 569.73 194.28L571.89 194.28Q571.67 195.94 570.28 196.91Q568.89 197.88 566.80 197.88M563.73 189.24L563.73 189.91L569.87 189.91L569.87 189.24Q569.87 187.68 569.07 186.83Q568.26 185.98 566.80 185.98Q565.34 185.98 564.53 186.83Q563.73 187.68 563.73 189.24" fill="white" fill-opacity="0.7"/>
<path d="M578.37 197.64L576.21 197.64L576.21 184.44L578.37 184.44L578.37 186.96L578.39 186.96Q578.56 185.64 579.47 184.92Q580.38 184.20 581.90 184.20Q583.89 184.20 585.06 185.42Q586.24 186.65 586.24 188.76L586.24 197.64L584.08 197.64L584.08 189.14Q584.08 187.63 583.32 186.83Q582.57 186.02 581.27 186.02Q579.93 186.02 579.15 186.86Q578.37 187.70 578.37 189.24" fill="white" fill-opacity="0.7"/>
<path d="M600.76 197.64L596.92 197.64Q595.29 197.64 594.30 196.69Q593.32 195.74 593.32 194.16L593.32 186.41L589.53 186.41L589.53 184.44L593.32 184.44L593.32 180.72L595.48 180.72L595.48 184.44L600.88 184.44L600.88 186.41L595.48 186.41L595.48 194.16Q595.48 194.83 595.88 195.25Q596.27 195.67 596.92 195.67L600.76 195.67" fill="white" fill-opacity="0.7"/>
<path d="M621.57 197.64L619.41 197.64L619.41 184.44L621.57 184.44L621.57 186.96L621.59 186.96Q621.76 185.64 622.67 184.92Q623.58 184.20 625.10 184.20Q627.09 184.20 628.26 185.42Q629.44 186.65 629.44 188.76L629.44 197.64L627.28 197.64L627.28 189.14Q627.28 187.63 626.52 186.83Q625.77 186.02 624.47 186.02Q623.13 186.02 622.35 186.86Q621.57 187.70 621.57 189.24" fill="white" fill-opacity="0.7"/>
<path d="M638.80 197.83Q636.42 197.83 635.02 196.44Q633.62 195.05 633.62 192.55L633.62 189.53Q633.62 187.01 635.01 185.63Q636.40 184.25 638.80 184.25Q641.20 184.25 642.59 185.63Q643.98 187.01 643.98 189.53L643.98 192.55Q643.98 195.05 642.58 196.44Q641.18 197.83 638.80 197.83M638.80 195.91Q640.22 195.91 641.02 195.12Q641.82 194.33 641.82 192.79L641.82 189.29Q641.82 187.75 641.02 186.96Q640.22 186.17 638.80 186.17Q637.41 186.17 636.59 186.96Q635.78 187.75 635.78 189.29L635.78 192.79Q635.78 194.33 636.59 195.12Q637.41 195.91 638.80 195.91" fill="white" fill-opacity="0.7"/>
<path d="M651.28 197.64L648.90 197.64L646.74 184.44L648.62 184.44L649.96 193.75Q650.03 194.28 650.10 194.92Q650.18 195.55 650.20 195.96Q650.25 195.55 650.31 194.92Q650.37 194.28 650.46 193.75L652.12 184.44L654.28 184.44L655.94 193.75Q656.03 194.28 656.12 194.92Q656.20 195.55 656.22 195.96Q656.27 195.55 656.34 194.92Q656.42 194.28 656.49 193.75L657.88 184.44L659.66 184.44L657.40 197.64L655.02 197.64L653.51 188.52Q653.42 187.85 653.33 187.09Q653.25 186.34 653.20 185.93Q653.18 186.34 653.08 187.09Q652.98 187.85 652.86 188.52" fill="white" fill-opacity="0.7"/>
<path d="M682 197.83Q679.62 197.83 678.22 196.44Q676.82 195.05 676.82 192.55L676.82 189.53Q676.82 187.01 678.21 185.63Q679.60 184.25 682 184.25Q684.40 184.25 685.79 185.63Q687.18 187.01 687.18 189.53L687.18 192.55Q687.18 195.05 685.78 196.44Q684.38 197.83 682 197.83M682 195.91Q683.42 195.91 684.22 195.12Q685.02 194.33 685.02 192.79L685.02 189.29Q685.02 187.75 684.22 186.96Q683.42 186.17 682 186.17Q680.61 186.17 679.79 186.96Q678.98 187.75 678.98 189.29L678.98 192.79Q678.98 194.33 679.79 195.12Q680.61 195.91 682 195.91" fill="white" fill-opacity="0.7"/>
<path d="M696.52 197.64L694.36 197.64L694.36 188.21L690.52 188.21L690.52 186.24L694.36 186.24L694.36 183.48Q694.36 181.92 695.34 181.02Q696.33 180.12 698.06 180.12L701.92 180.12L701.92 182.09L698.06 182.09Q696.52 182.09 696.52 183.48L696.52 186.24L701.92 186.24L701.92 188.21L696.52 188.21" fill="white" fill-opacity="0.7"/>
<path d="M710.92 197.64L708.76 197.64L708.76 188.21L704.92 188.21L704.92 186.24L708.76 186.24L708.76 183.48Q708.76 181.92 709.74 181.02Q710.73 180.12 712.46 180.12L716.32 180.12L716.32 182.09L712.46 182.09Q710.92 182.09 710.92 183.48L710.92 186.24L716.32 186.24L716.32 188.21L710.92 188.21" fill="white" fill-opacity="0.7"/>
<path d="M725.20 197.88Q722.87 197.88 721.44 196.48Q720.02 195.07 720.02 192.60L720.02 189.48Q720.02 187.01 721.44 185.60Q722.87 184.20 725.20 184.20Q726.76 184.20 727.92 184.82Q729.09 185.45 729.74 186.58Q730.38 187.70 730.38 189.24L730.38 191.59L722.13 191.59L722.13 192.84Q722.13 194.30 722.97 195.16Q723.81 196.01 725.20 196.01Q726.40 196.01 727.18 195.54Q727.96 195.07 728.13 194.28L730.29 194.28Q730.07 195.94 728.68 196.91Q727.29 197.88 725.20 197.88M722.13 189.24L722.13 189.91L728.27 189.91L728.27 189.24Q728.27 187.68 727.47 186.83Q726.66 185.98 725.20 185.98Q723.74 185.98 722.93 186.83Q722.13 187.68 722.13 189.24" fill="white" fill-opacity="0.7"/>
<path d="M737.25 197.64L735.09 197.64L735.09 184.44L737.25 184.44L737.25 186.96L737.30 186.96Q737.46 185.69 738.38 184.94Q739.29 184.20 740.82 184.20Q742.89 184.20 744 185.44Q745.12 186.67 745.12 188.95L745.12 190.08L742.96 190.08L742.96 188.95Q742.96 186.07 740.15 186.07Q738.74 186.07 737.99 186.89Q737.25 187.70 737.25 189.24" fill="white" fill-opacity="0.7"/>
<path d="M754.53 197.83L753.47 197.83Q751.26 197.83 750.05 196.84Q748.84 195.84 748.84 194.02L751 194.02Q751 194.93 751.65 195.44Q752.30 195.96 753.47 195.96L754.53 195.96Q755.73 195.96 756.39 195.43Q757.05 194.90 757.05 193.94Q757.05 192.24 755.49 192.02L751.84 191.50Q750.50 191.30 749.75 190.38Q749.01 189.46 749.01 187.94Q749.01 186.22 750.20 185.23Q751.38 184.25 753.47 184.25L754.53 184.25Q756.45 184.25 757.66 185.20Q758.87 186.14 758.97 187.68L756.78 187.68Q756.74 186.98 756.12 186.53Q755.51 186.07 754.53 186.07L753.47 186.07Q752.37 186.07 751.74 186.58Q751.12 187.08 751.12 187.94Q751.12 189.34 752.39 189.53L755.80 190.01Q759.16 190.49 759.16 193.94Q759.16 195.79 757.95 196.81Q756.74 197.83 754.53 197.83" fill="white" fill-opacity="0.7"/>
<path d="M782.03 197.88Q780.06 197.88 778.88 196.56Q777.69 195.24 777.69 192.98L777.69 189.12Q777.69 186.84 778.86 185.52Q780.04 184.20 782.03 184.20Q783.52 184.20 784.49 184.94Q785.46 185.69 785.66 186.96L785.68 186.96L785.63 183.96L785.63 180.12L787.79 180.12L787.79 197.64L785.63 197.64L785.63 195.12L785.61 195.12Q785.44 196.42 784.48 197.15Q783.52 197.88 782.03 197.88M782.75 196.01Q784.10 196.01 784.86 195.17Q785.63 194.33 785.63 192.84L785.63 189.24Q785.63 187.75 784.86 186.91Q784.10 186.07 782.75 186.07Q781.38 186.07 780.62 186.78Q779.85 187.49 779.85 189.12L779.85 192.96Q779.85 194.57 780.62 195.29Q781.38 196.01 782.75 196.01" fill="white" fill-opacity="0.7"/>
<path d="M803.32 197.64L792.04 197.64L792.04 195.67L796.72 195.67L796.72 186.41L792.52 186.41L792.52 184.44L798.88 184.44L798.88 195.67L803.32 195.67L803.32 197.64M797.56 182.06Q796.77 182.06 796.31 181.66Q795.86 181.25 795.86 180.55Q795.86 179.83 796.31 179.41Q796.77 178.99 797.56 178.99Q798.35 178.99 798.81 179.41Q799.26 179.83 799.26 180.55Q799.26 181.25 798.81 181.66Q798.35 182.06 797.56 182.06" fill="white" fill-opacity="0.7"/>
<path d="M812.13 197.83L811.07 197.83Q808.86 197.83 807.65 196.84Q806.44 195.84 806.44 194.02L808.60 194.02Q808.60 194.93 809.25 195.44Q809.90 195.96 811.07 195.96L812.13 195.96Q813.33 195.96 813.99 195.43Q814.65 194.90 814.65 193.94Q814.65 192.24 813.09 192.02L809.44 191.50Q808.10 191.30 807.35 190.38Q806.61 189.46 806.61 187.94Q806.61 186.22 807.80 185.23Q808.98 184.25 811.07 184.25L812.13 184.25Q814.05 184.25 815.26 185.20Q816.47 186.14 816.57 187.68L814.38 187.68Q814.34 186.98 813.72 186.53Q813.11 186.07 812.13 186.07L811.07 186.07Q809.97 186.07 809.34 186.58Q808.72 187.08 808.72 187.94Q808.72 189.34 809.99 189.53L813.40 190.01Q816.76 190.49 816.76 193.94Q816.76 195.79 815.55 196.81Q814.34 197.83 812.13 197.83" fill="white" fill-opacity="0.7"/>
<path d="M824.85 197.88Q822.81 197.88 821.61 196.74Q820.41 195.60 820.41 193.75Q820.41 192.53 820.96 191.62Q821.51 190.70 822.50 190.19Q823.48 189.67 824.75 189.67L828.83 189.67L828.83 188.64Q828.83 186.07 826.02 186.07Q824.78 186.07 824.01 186.53Q823.24 186.98 823.19 187.80L821.03 187.80Q821.15 186.24 822.48 185.22Q823.82 184.20 826.02 184.20Q828.42 184.20 829.71 185.35Q830.99 186.50 830.99 188.57L830.99 197.64L828.86 197.64L828.86 195.24L828.81 195.24Q828.62 196.46 827.58 197.17Q826.55 197.88 824.85 197.88M825.38 196.06Q826.96 196.06 827.90 195.29Q828.83 194.52 828.83 193.20L828.83 191.35L824.99 191.35Q823.94 191.35 823.28 191.99Q822.62 192.62 822.62 193.68Q822.62 194.78 823.35 195.42Q824.08 196.06 825.38 196.06" fill="white" fill-opacity="0.7"/>
<path d="M841.17 197.88Q839.68 197.88 838.72 197.15Q837.76 196.42 837.59 195.12L837.57 195.12L837.57 197.64L835.41 197.64L835.41 180.12L837.57 180.12L837.57 183.96L837.52 186.96L837.54 186.96Q837.74 185.69 838.71 184.94Q839.68 184.20 841.17 184.20Q843.16 184.20 844.34 185.52Q845.51 186.84 845.51 189.12L845.51 192.98Q845.51 195.24 844.34 196.56Q843.16 197.88 841.17 197.88M840.45 196.01Q841.82 196.01 842.58 195.29Q843.35 194.57 843.35 192.96L843.35 189.12Q843.35 187.49 842.58 186.78Q841.82 186.07 840.45 186.07Q839.13 186.07 838.35 186.91Q837.57 187.75 837.57 189.24L837.57 192.84Q837.57 194.33 838.35 195.17Q839.13 196.01 840.45 196.01" fill="white" fill-opacity="0.7"/>
<path d="M860.92 197.64L849.64 197.64L849.64 195.67L854.32 195.67L854.32 186.41L850.12 186.41L850.12 184.44L856.48 184.44L856.48 195.67L860.92 195.67L860.92 197.64M855.16 182.06Q854.37 182.06 853.91 181.66Q853.46 181.25 853.46 180.55Q853.46 179.83 853.91 179.41Q854.37 178.99 855.16 178.99Q855.95 178.99 856.41 179.41Q856.86 179.83 856.86 180.55Q856.86 181.25 856.41 181.66Q855.95 182.06 855.16 182.06" fill="white" fill-opacity="0.7"/>
<path d="M875.20 197.64L871.12 197.64Q869.37 197.64 868.32 196.62Q867.28 195.60 867.28 193.92L867.28 182.09L862.72 182.09L862.72 180.12L869.44 180.12L869.44 193.92Q869.44 194.74 869.90 195.20Q870.35 195.67 871.12 195.67L875.20 195.67" fill="white" fill-opacity="0.7"/>
<path d="M889.72 197.64L878.44 197.64L878.44 195.67L883.12 195.67L883.12 186.41L878.92 186.41L878.92 184.44L885.28 184.44L885.28 195.67L889.72 195.67L889.72 197.64M883.96 182.06Q883.17 182.06 882.71 181.66Q882.26 181.25 882.26 180.55Q882.26 179.83 882.71 179.41Q883.17 178.99 883.96 178.99Q884.75 178.99 885.21 179.41Q885.66 179.83 885.66 180.55Q885.66 181.25 885.21 181.66Q884.75 182.06 883.96 182.06" fill="white" fill-opacity="0.7"/>
<path d="M903.16 197.64L899.32 197.64Q897.69 197.64 896.70 196.69Q895.72 195.74 895.72 194.16L895.72 186.41L891.93 186.41L891.93 184.44L895.72 184.44L895.72 180.72L897.88 180.72L897.88 184.44L903.28 184.44L903.28 186.41L897.88 186.41L897.88 194.16Q897.88 194.83 898.28 195.25Q898.67 195.67 899.32 195.67L903.16 195.67" fill="white" fill-opacity="0.7"/>
<path d="M911.73 201.96L909.47 201.96L911.42 196.82L906.50 184.44L908.82 184.44L911.94 192.60Q912.14 193.08 912.30 193.61Q912.47 194.14 912.54 194.52Q912.62 194.14 912.78 193.61Q912.95 193.08 913.12 192.60L916.02 184.44L918.30 184.44" fill="white" fill-opacity="0.7"/>
<path d="M941.39 197.88Q938.99 197.88 937.55 196.54Q936.11 195.19 936.11 192.84L936.11 189.24Q936.11 186.89 937.55 185.54Q938.99 184.20 941.39 184.20Q943.67 184.20 945.08 185.42Q946.48 186.65 946.55 188.76L944.39 188.76Q944.32 187.49 943.53 186.80Q942.74 186.12 941.39 186.12Q939.98 186.12 939.12 186.92Q938.27 187.73 938.27 189.22L938.27 192.84Q938.27 194.33 939.12 195.14Q939.98 195.96 941.39 195.96Q942.74 195.96 943.53 195.26Q944.32 194.57 944.39 193.32L946.55 193.32Q946.48 195.43 945.08 196.66Q943.67 197.88 941.39 197.88" fill="white" fill-opacity="0.7"/>
<path d="M955.60 197.88Q953.27 197.88 951.84 196.48Q950.42 195.07 950.42 192.60L950.42 189.48Q950.42 187.01 951.84 185.60Q953.27 184.20 955.60 184.20Q957.16 184.20 958.32 184.82Q959.49 185.45 960.14 186.58Q960.78 187.70 960.78 189.24L960.78 191.59L952.53 191.59L952.53 192.84Q952.53 194.30 953.37 195.16Q954.21 196.01 955.60 196.01Q956.80 196.01 957.58 195.54Q958.36 195.07 958.53 194.28L960.69 194.28Q960.47 195.94 959.08 196.91Q957.69 197.88 955.60 197.88M952.53 189.24L952.53 189.91L958.67 189.91L958.67 189.24Q958.67 187.68 957.87 186.83Q957.06 185.98 955.60 185.98Q954.14 185.98 953.33 186.83Q952.53 187.68 952.53 189.24" fill="white" fill-opacity="0.7"/>
<path d="M967.65 197.64L965.49 197.64L965.49 184.44L967.65 184.44L967.65 186.96L967.70 186.96Q967.86 185.69 968.78 184.94Q969.69 184.20 971.22 184.20Q973.29 184.20 974.40 185.44Q975.52 186.67 975.52 188.95L975.52 190.08L973.36 190.08L973.36 188.95Q973.36 186.07 970.55 186.07Q969.14 186.07 968.39 186.89Q967.65 187.70 967.65 189.24" fill="white" fill-opacity="0.7"/>
<path d="M989.56 197.64L985.72 197.64Q984.09 197.64 983.10 196.69Q982.12 195.74 982.12 194.16L982.12 186.41L978.33 186.41L978.33 184.44L982.12 184.44L982.12 180.72L984.28 180.72L984.28 184.44L989.68 184.44L989.68 186.41L984.28 186.41L984.28 194.16Q984.28 194.83 984.68 195.25Q985.07 195.67 985.72 195.67L989.56 195.67" fill="white" fill-opacity="0.7"/>
<path d="M1004.92 197.64L993.64 197.64L993.64 195.67L998.32 195.67L998.32 186.41L994.12 186.41L994.12 184.44L1000.48 184.44L1000.48 195.67L1004.92 195.67L1004.92 197.64M999.16 182.06Q998.37 182.06 997.91 181.66Q997.46 181.25 997.46 180.55Q997.46 179.83 997.91 179.41Q998.37 178.99 999.16 178.99Q999.95 178.99 1000.41 179.41Q1000.86 179.83 1000.86 180.55Q1000.86 181.25 1000.41 181.66Q999.95 182.06 999.16 182.06" fill="white" fill-opacity="0.7"/>
<path d="M1013.32 197.64L1011.16 197.64L1011.16 188.21L1007.32 188.21L1007.32 186.24L1011.16 186.24L1011.16 183.48Q1011.16 181.92 1012.14 181.02Q1013.13 180.12 1014.86 180.12L1018.72 180.12L1018.72 182.09L1014.86 182.09Q1013.32 182.09 1013.32 183.48L1013.32 186.24L1018.72 186.24L1018.72 188.21L1013.32 188.21" fill="white" fill-opacity="0.7"/>
<path d="M1033.72 197.64L1022.44 197.64L1022.44 195.67L1027.12 195.67L1027.12 186.41L1022.92 186.41L1022.92 184.44L1029.28 184.44L1029.28 195.67L1033.72 195.67L1033.72 197.64M1027.96 182.06Q1027.17 182.06 1026.71 181.66Q1026.26 181.25 1026.26 180.55Q1026.26 179.83 1026.71 179.41Q1027.17 178.99 1027.96 178.99Q1028.75 178.99 1029.21 179.41Q1029.66 179.83 1029.66 180.55Q1029.66 181.25 1029.21 181.66Q1028.75 182.06 1027.96 182.06" fill="white" fill-opacity="0.7"/>
<path d="M1042.19 197.88Q1039.79 197.88 1038.35 196.54Q1036.91 195.19 1036.91 192.84L1036.91 189.24Q1036.91 186.89 1038.35 185.54Q1039.79 184.20 1042.19 184.20Q1044.47 184.20 1045.88 185.42Q1047.28 186.65 1047.35 188.76L1045.19 188.76Q1045.12 187.49 1044.33 186.80Q1043.54 186.12 1042.19 186.12Q1040.78 186.12 1039.92 186.92Q1039.07 187.73 1039.07 189.22L1039.07 192.84Q1039.07 194.33 1039.92 195.14Q1040.78 195.96 1042.19 195.96Q1043.54 195.96 1044.33 195.26Q1045.12 194.57 1045.19 193.32L1047.35 193.32Q1047.28 195.43 1045.88 196.66Q1044.47 197.88 1042.19 197.88" fill="white" fill-opacity="0.7"/>
<path d="M1055.25 197.88Q1053.21 197.88 1052.01 196.74Q1050.81 195.60 1050.81 193.75Q1050.81 192.53 1051.36 191.62Q1051.91 190.70 1052.90 190.19Q1053.88 189.67 1055.15 189.67L1059.23 189.67L1059.23 188.64Q1059.23 186.07 1056.42 186.07Q1055.18 186.07 1054.41 186.53Q1053.64 186.98 1053.59 187.80L1051.43 187.80Q1051.55 186.24 1052.88 185.22Q1054.22 184.20 1056.42 184.20Q1058.82 184.20 1060.11 185.35Q1061.39 186.50 1061.39 188.57L1061.39 197.64L1059.26 197.64L1059.26 195.24L1059.21 195.24Q1059.02 196.46 1057.98 197.17Q1056.95 197.88 1055.25 197.88M1055.78 196.06Q1057.36 196.06 1058.30 195.29Q1059.23 194.52 1059.23 193.20L1059.23 191.35L1055.39 191.35Q1054.34 191.35 1053.68 191.99Q1053.02 192.62 1053.02 193.68Q1053.02 194.78 1053.75 195.42Q1054.48 196.06 1055.78 196.06" fill="white" fill-opacity="0.7"/>
<path d="M1075.96 197.64L1072.12 197.64Q1070.49 197.64 1069.50 196.69Q1068.52 195.74 1068.52 194.16L1068.52 186.41L1064.73 186.41L1064.73 184.44L1068.52 184.44L1068.52 180.72L1070.68 180.72L1070.68 184.44L1076.08 184.44L1076.08 186.41L1070.68 186.41L1070.68 194.16Q1070.68 194.83 1071.08 195.25Q1071.47 195.67 1072.12 195.67L1075.96 195.67" fill="white" fill-opacity="0.7"/>
<path d="M1085.20 197.88Q1082.87 197.88 1081.44 196.48Q1080.02 195.07 1080.02 192.60L1080.02 189.48Q1080.02 187.01 1081.44 185.60Q1082.87 184.20 1085.20 184.20Q1086.76 184.20 1087.92 184.82Q1089.09 185.45 1089.74 186.58Q1090.38 187.70 1090.38 189.24L1090.38 191.59L1082.13 191.59L1082.13 192.84Q1082.13 194.30 1082.97 195.16Q1083.81 196.01 1085.20 196.01Q1086.40 196.01 1087.18 195.54Q1087.96 195.07 1088.13 194.28L1090.29 194.28Q1090.07 195.94 1088.68 196.91Q1087.29 197.88 1085.20 197.88M1082.13 189.24L1082.13 189.91L1088.27 189.91L1088.27 189.24Q1088.27 187.68 1087.47 186.83Q1086.66 185.98 1085.20 185.98Q1083.74 185.98 1082.93 186.83Q1082.13 187.68 1082.13 189.24" fill="white" fill-opacity="0.7"/>
<path d="M1100.13 197.83L1099.07 197.83Q1096.86 197.83 1095.65 196.84Q1094.44 195.84 1094.44 194.02L1096.60 194.02Q1096.60 194.93 1097.25 195.44Q1097.90 195.96 1099.07 195.96L1100.13 195.96Q1101.33 195.96 1101.99 195.43Q1102.65 194.90 1102.65 193.94Q1102.65 192.24 1101.09 192.02L1097.44 191.50Q1096.10 191.30 1095.35 190.38Q1094.61 189.46 1094.61 187.94Q1094.61 186.22 1095.80 185.23Q1096.98 184.25 1099.07 184.25L1100.13 184.25Q1102.05 184.25 1103.26 185.20Q1104.47 186.14 1104.57 187.68L1102.38 187.68Q1102.34 186.98 1101.72 186.53Q1101.11 186.07 1100.13 186.07L1099.07 186.07Q1097.97 186.07 1097.34 186.58Q1096.72 187.08 1096.72 187.94Q1096.72 189.34 1097.99 189.53L1101.40 190.01Q1104.76 190.49 1104.76 193.94Q1104.76 195.79 1103.55 196.81Q1102.34 197.83 1100.13 197.83" fill="white" fill-opacity="0.7"/>
<path d="M1129.82 197.64L1126.98 197.64L1122.50 184.44L1124.82 184.44L1127.70 193.32Q1127.97 194.11 1128.16 194.84Q1128.35 195.58 1128.45 195.98Q1128.57 195.58 1128.74 194.84Q1128.90 194.11 1129.14 193.32L1132.02 184.44L1134.30 184.44" fill="white" fill-opacity="0.7"/>
<path d="M1148.92 197.64L1137.64 197.64L1137.64 195.67L1142.32 195.67L1142.32 186.41L1138.12 186.41L1138.12 184.44L1144.48 184.44L1144.48 195.67L1148.92 195.67L1148.92 197.64M1143.16 182.06Q1142.37 182.06 1141.91 181.66Q1141.46 181.25 1141.46 180.55Q1141.46 179.83 1141.91 179.41Q1142.37 178.99 1143.16 178.99Q1143.95 178.99 1144.41 179.41Q1144.86 179.83 1144.86 180.55Q1144.86 181.25 1144.41 181.66Q1143.95 182.06 1143.16 182.06" fill="white" fill-opacity="0.7"/>
<path d="M1156.05 197.88Q1154.01 197.88 1152.81 196.74Q1151.61 195.60 1151.61 193.75Q1151.61 192.53 1152.16 191.62Q1152.71 190.70 1153.70 190.19Q1154.68 189.67 1155.95 189.67L1160.03 189.67L1160.03 188.64Q1160.03 186.07 1157.22 186.07Q1155.98 186.07 1155.21 186.53Q1154.44 186.98 1154.39 187.80L1152.23 187.80Q1152.35 186.24 1153.68 185.22Q1155.02 184.20 1157.22 184.20Q1159.62 184.20 1160.91 185.35Q1162.19 186.50 1162.19 188.57L1162.19 197.64L1160.06 197.64L1160.06 195.24L1160.01 195.24Q1159.82 196.46 1158.78 197.17Q1157.75 197.88 1156.05 197.88M1156.58 196.06Q1158.16 196.06 1159.10 195.29Q1160.03 194.52 1160.03 193.20L1160.03 191.35L1156.19 191.35Q1155.14 191.35 1154.48 191.99Q1153.82 192.62 1153.82 193.68Q1153.82 194.78 1154.55 195.42Q1155.28 196.06 1156.58 196.06" fill="white" fill-opacity="0.7"/>
<path d="M76.74 229.64L72.21 229.64L72.21 212.12L76.74 212.12Q78.45 212.12 79.68 212.77Q80.92 213.42 81.60 214.59Q82.29 215.77 82.29 217.38L82.29 224.36Q82.29 225.97 81.60 227.16Q80.92 228.34 79.68 228.99Q78.45 229.64 76.74 229.64M74.37 214.04L74.37 227.72L76.74 227.72Q78.33 227.72 79.23 226.83Q80.13 225.94 80.13 224.36L80.13 217.38Q80.13 215.82 79.23 214.93Q78.33 214.04 76.74 214.04" fill="white" fill-opacity="0.7"/>
<path d="M97.72 229.64L86.44 229.64L86.44 227.67L91.12 227.67L91.12 218.41L86.92 218.41L86.92 216.44L93.28 216.44L93.28 227.67L97.72 227.67L97.72 229.64M91.96 214.06Q91.17 214.06 90.71 213.66Q90.26 213.25 90.26 212.55Q90.26 211.83 90.71 211.41Q91.17 210.99 91.96 210.99Q92.75 210.99 93.21 211.41Q93.66 211.83 93.66 212.55Q93.66 213.25 93.21 213.66Q92.75 214.06 91.96 214.06" fill="white" fill-opacity="0.7"/>
<path d="M106.36 233.96L102.66 233.96L102.66 231.99L106.38 231.99Q107.51 231.99 108.16 231.36Q108.81 230.72 108.81 229.64L108.81 228.44L108.86 226.28L108.78 226.28Q108.59 227.46 107.66 228.09Q106.72 228.73 105.30 228.73Q103.26 228.73 102.09 227.43Q100.91 226.14 100.91 223.88L100.91 221.10Q100.91 218.84 102.09 217.52Q103.26 216.20 105.30 216.20Q106.72 216.20 107.66 216.87Q108.59 217.54 108.78 218.72L108.83 218.72L108.83 216.44L110.97 216.44L110.97 229.64Q110.97 231.63 109.73 232.80Q108.50 233.96 106.36 233.96M105.95 226.93Q107.30 226.93 108.06 226.09Q108.83 225.25 108.83 223.76L108.83 221.24Q108.83 219.75 108.06 218.91Q107.30 218.07 105.95 218.07Q104.58 218.07 103.83 218.86Q103.07 219.66 103.07 221L103.07 224Q103.07 225.34 103.83 226.14Q104.58 226.93 105.95 226.93" fill="white" fill-opacity="0.7"/>
<path d="M126.52 229.64L115.24 229.64L115.24 227.67L119.92 227.67L119.92 218.41L115.72 218.41L115.72 216.44L122.08 216.44L122.08 227.67L126.52 227.67L126.52 229.64M120.76 214.06Q119.97 214.06 119.51 213.66Q119.06 213.25 119.06 212.55Q119.06 211.83 119.51 211.41Q119.97 210.99 120.76 210.99Q121.55 210.99 122.01 211.41Q122.46 211.83 122.46 212.55Q122.46 213.25 122.01 213.66Q121.55 214.06 120.76 214.06" fill="white" fill-opacity="0.7"/>
<path d="M140.80 229.64L130.72 229.64L130.72 212.12L132.88 212.12L132.88 227.67L140.80 227.67" fill="white" fill-opacity="0.7"/>
<path d="M149.20 229.83Q146.82 229.83 145.42 228.44Q144.02 227.05 144.02 224.55L144.02 221.53Q144.02 219.01 145.41 217.63Q146.80 216.25 149.20 216.25Q151.60 216.25 152.99 217.63Q154.38 219.01 154.38 221.53L154.38 224.55Q154.38 227.05 152.98 228.44Q151.58 229.83 149.20 229.83M149.20 227.91Q150.62 227.91 151.42 227.12Q152.22 226.33 152.22 224.79L152.22 221.29Q152.22 219.75 151.42 218.96Q150.62 218.17 149.20 218.17Q147.81 218.17 146.99 218.96Q146.18 219.75 146.18 221.29L146.18 224.79Q146.18 226.33 146.99 227.12Q147.81 227.91 149.20 227.91" fill="white" fill-opacity="0.7"/>
<path d="M163.79 229.88Q161.39 229.88 159.95 228.54Q158.51 227.19 158.51 224.84L158.51 221.24Q158.51 218.89 159.95 217.54Q161.39 216.20 163.79 216.20Q166.07 216.20 167.48 217.42Q168.88 218.65 168.95 220.76L166.79 220.76Q166.72 219.49 165.93 218.80Q165.14 218.12 163.79 218.12Q162.38 218.12 161.52 218.92Q160.67 219.73 160.67 221.22L160.67 224.84Q160.67 226.33 161.52 227.14Q162.38 227.96 163.79 227.96Q165.14 227.96 165.93 227.26Q166.72 226.57 166.79 225.32L168.95 225.32Q168.88 227.43 167.48 228.66Q166.07 229.88 163.79 229.88" fill="white" fill-opacity="0.7"/>
<path d="M175.29 229.64L173.13 229.64L173.13 212.12L175.29 212.12L175.29 221.89L177.81 221.89L181.50 216.44L183.98 216.44L179.73 222.73L184.22 229.64L181.70 229.64L177.86 223.76L175.29 223.76" fill="white" fill-opacity="0.7"/>
<path d="M192.40 229.88Q190.07 229.88 188.64 228.48Q187.22 227.07 187.22 224.60L187.22 221.48Q187.22 219.01 188.64 217.60Q190.07 216.20 192.40 216.20Q193.96 216.20 195.12 216.82Q196.29 217.45 196.94 218.58Q197.58 219.70 197.58 221.24L197.58 223.59L189.33 223.59L189.33 224.84Q189.33 226.30 190.17 227.16Q191.01 228.01 192.40 228.01Q193.60 228.01 194.38 227.54Q195.16 227.07 195.33 226.28L197.49 226.28Q197.27 227.94 195.88 228.91Q194.49 229.88 192.40 229.88M189.33 221.24L189.33 221.91L195.47 221.91L195.47 221.24Q195.47 219.68 194.67 218.83Q193.86 217.98 192.40 217.98Q190.94 217.98 190.13 218.83Q189.33 219.68 189.33 221.24" fill="white" fill-opacity="0.7"/>
<path d="M204.45 229.64L202.29 229.64L202.29 216.44L204.45 216.44L204.45 218.96L204.50 218.96Q204.66 217.69 205.58 216.94Q206.49 216.20 208.02 216.20Q210.09 216.20 211.20 217.44Q212.32 218.67 212.32 220.95L212.32 222.08L210.16 222.08L210.16 220.95Q210.16 218.07 207.35 218.07Q205.94 218.07 205.19 218.89Q204.45 219.70 204.45 221.24" fill="white" fill-opacity="0.7"/>
<path d="M221.20 229.88Q220.31 229.88 219.77 229.35Q219.23 228.82 219.23 227.98Q219.23 227.10 219.77 226.54Q220.31 225.99 221.20 225.99Q222.09 225.99 222.63 226.54Q223.17 227.10 223.17 227.98Q223.17 228.82 222.63 229.35Q222.09 229.88 221.20 229.88" fill="white" fill-opacity="0.7"/>
<path d="M76.11 136.06L66.42 136.06L84.56 65.98L97.14 65.98L115.18 136.06L105.49 136.06L101.07 117.82L80.53 117.82L76.11 136.06M87.54 88.92L82.45 109.95L99.15 109.95L94.16 89.02Q92.72 83.26 91.86 79.23Q90.99 75.20 90.80 73.76Q90.61 75.20 89.74 79.23Q88.88 83.26 87.54 88.92M137.55 136.06L128.05 136.06L128.05 65.98L150.80 65.98Q157.52 65.98 162.42 68.57Q167.31 71.16 170 75.82Q172.69 80.48 172.69 86.91Q172.69 93.24 170 97.90Q167.31 102.56 162.37 105.15Q157.42 107.74 150.80 107.74L137.55 107.74L137.55 136.06M137.55 74.43L137.55 99.29L150.80 99.29Q156.37 99.29 159.63 95.88Q162.90 92.48 162.90 86.91Q162.90 81.24 159.63 77.84Q156.37 74.43 150.80 74.43L137.55 74.43M225.10 136.06L186.90 136.06L186.90 127.42L201.20 127.42L201.20 74.62L186.90 74.62L186.90 65.98L225.10 65.98L225.10 74.62L210.80 74.62L210.80 127.42L225.10 127.42L225.10 136.06M263.98 137.02Q253.62 137.02 247.47 131.60Q241.33 126.17 241.33 116.67L250.83 116.67Q250.83 122.24 254.38 125.40Q257.94 128.57 263.98 128.57Q269.74 128.57 273.15 125.36Q276.56 122.14 276.56 116.76Q276.56 112.73 274.35 109.71Q272.14 106.68 268.11 105.63L257.74 102.84Q250.93 100.92 246.94 95.88Q242.96 90.84 242.96 83.93Q242.96 78.27 245.50 74Q248.05 69.72 252.66 67.37Q257.26 65.02 263.31 65.02Q269.46 65.02 274.11 67.37Q278.77 69.72 281.36 73.95Q283.95 78.17 283.95 83.74L274.54 83.74Q274.54 79.13 271.42 76.25Q268.30 73.37 263.31 73.37Q258.32 73.37 255.30 76.25Q252.27 79.13 252.27 83.74Q252.27 87.48 254.29 90.03Q256.30 92.57 259.95 93.63L270.61 96.51Q277.81 98.43 281.84 103.85Q285.87 109.28 285.87 116.76Q285.87 122.91 283.18 127.47Q280.50 132.03 275.55 134.52Q270.61 137.02 263.98 137.02M342.51 136.06L301.71 136.06L301.71 65.98L342.51 65.98L342.51 74.52L311.12 74.52L311.12 95.36L339.15 95.36L339.15 103.61L311.12 103.61L311.12 127.52L342.51 127.52L342.51 136.06M383.60 136.06L374.10 136.06L374.10 74.62L355.09 74.62L355.09 65.98L402.51 65.98L402.51 74.62L383.60 74.62L383.60 136.06M436.40 137.02Q426.51 137.02 421.18 131.55Q415.86 126.08 415.86 116.67L415.86 65.98L425.36 65.98L425.36 116.67Q425.36 122.24 428.10 125.40Q430.83 128.57 436.40 128.57Q441.87 128.57 444.70 125.40Q447.54 122.24 447.54 116.67L447.54 65.98L457.04 65.98L457.04 116.67Q457.04 126.17 451.71 131.60Q446.38 137.02 436.40 137.02M551.98 137.02Q542.29 137.02 536.58 131.60Q530.86 126.17 530.86 116.67L530.86 85.28Q530.86 75.87 536.58 70.44Q542.29 65.02 551.98 65.02Q561.58 65.02 567.30 70.49Q573.01 75.96 573.01 85.28L563.50 85.28Q563.50 79.61 560.43 76.54Q557.36 73.47 551.98 73.47Q546.51 73.47 543.44 76.54Q540.37 79.61 540.37 85.28L540.37 116.67Q540.37 122.43 543.44 125.50Q546.51 128.57 551.98 128.57Q557.36 128.57 560.43 125.50Q563.50 122.43 563.50 116.67L563.50 107.55L549.87 107.55L549.87 99.10L573.01 99.10L573.01 116.67Q573.01 126.08 567.30 131.55Q561.58 137.02 551.98 137.02M609.20 137.02Q599.60 137.02 594.03 131.45Q588.46 125.88 588.46 115.71L588.46 86.24Q588.46 76.16 594.03 70.59Q599.60 65.02 609.20 65.02Q618.80 65.02 624.37 70.54Q629.94 76.06 629.94 86.24L629.94 115.71Q629.94 125.88 624.37 131.45Q618.80 137.02 609.20 137.02M609.20 128.57Q614.58 128.57 617.50 125.50Q620.43 122.43 620.43 116.67L620.43 85.28Q620.43 79.61 617.55 76.54Q614.67 73.47 609.20 73.47Q603.73 73.47 600.85 76.54Q597.97 79.61 597.97 85.28L597.97 116.67Q597.97 122.43 600.90 125.50Q603.82 128.57 609.20 128.57M673.14 136.06L660.37 136.06L642.42 65.98L652.21 65.98L663.82 113.21Q664.98 117.72 665.79 121.90Q666.61 126.08 666.99 128.28Q667.28 126.08 668.19 121.85Q669.10 117.63 670.16 113.12L681.39 65.98L691.18 65.98L673.14 136.06M771.15 136.06L761.74 136.06L761.74 65.98L783.44 65.98Q789.87 65.98 794.67 68.52Q799.47 71.07 802.16 75.63Q804.85 80.19 804.85 86.33Q804.85 93.44 801.25 98.52Q797.65 103.61 791.70 105.72L805.81 136.06L795.34 136.06LNaN 106.78L771.15 106.78L771.15 136.06M771.15 74.43L771.15 98.33L783.44 98.33Q788.82 98.33 791.94 95.07Q795.06 91.80 795.06 86.43Q795.06 80.96 791.89 77.69Q788.72 74.43 783.44 74.43L771.15 74.43M824.91 136.06L815.22 136.06L833.36 65.98L845.94 65.98L863.98 136.06L854.29 136.06L849.87 117.82L829.33 117.82L824.91 136.06M836.34 88.92L831.25 109.95L847.95 109.95L842.96 89.02Q841.52 83.26 840.66 79.23Q839.79 75.20 839.60 73.76Q839.41 75.20 838.54 79.23Q837.68 83.26 836.34 88.92M894.32 137.02Q884.05 137.02 878.19 131.31Q872.34 125.60 872.34 115.71L881.84 115.71Q881.84 121.85 885.15 125.21Q888.46 128.57 894.32 128.57Q900.18 128.57 903.49 125.21Q906.80 121.85 906.80 115.80L906.80 65.98L916.30 65.98L916.30 115.80Q916.30 125.60 910.40 131.31Q904.50 137.02 894.32 137.02M940.11 136.06L930.42 136.06L948.56 65.98L961.14 65.98L979.18 136.06L969.49 136.06L965.07 117.82L944.53 117.82L940.11 136.06M951.54 88.92L946.45 109.95L963.15 109.95L958.16 89.02Q956.72 83.26 955.86 79.23Q954.99 75.20 954.80 73.76Q954.61 75.20 953.74 79.23Q952.88 83.26 951.54 88.92M1012.78 137.02Q1002.42 137.02 996.27 131.60Q990.13 126.17 990.13 116.67L999.63 116.67Q999.63 122.24 1003.18 125.40Q1006.74 128.57 1012.78 128.57Q1018.54 128.57 1021.95 125.36Q1025.36 122.14 1025.36 116.76Q1025.36 112.73 1023.15 109.71Q1020.94 106.68 1016.91 105.63L1006.54 102.84Q999.73 100.92 995.74 95.88Q991.76 90.84 991.76 83.93Q991.76 78.27 994.30 74Q996.85 69.72 1001.46 67.37Q1006.06 65.02 1012.11 65.02Q1018.26 65.02 1022.91 67.37Q1027.57 69.72 1030.16 73.95Q1032.75 78.17 1032.75 83.74L1023.34 83.74Q1023.34 79.13 1020.22 76.25Q1017.10 73.37 1012.11 73.37Q1007.12 73.37 1004.10 76.25Q1001.07 79.13 1001.07 83.74Q1001.07 87.48 1003.09 90.03Q1005.10 92.57 1008.75 93.63L1019.41 96.51Q1026.61 98.43 1030.64 103.85Q1034.67 109.28 1034.67 116.76Q1034.67 122.91 1031.98 127.47Q1029.30 132.03 1024.35 134.52Q1019.41 137.02 1012.78 137.02M1074.80 136.06L1065.30 136.06L1065.30 74.62L1046.29 74.62L1046.29 65.98L1093.71 65.98L1093.71 74.62L1074.80 74.62L1074.80 136.06M1116.85 136.06L1107.34 136.06L1107.34 65.98L1116.85 65.98L1116.85 95.55L1138.35 95.55L1138.35 65.98L1147.86 65.98L1147.86 136.06L1138.35 136.06L1138.35 104.19L1116.85 104.19L1116.85 136.06M1170.51 136.06L1160.82 136.06L1178.96 65.98L1191.54 65.98L1209.58 136.06L1199.89 136.06L1195.47 117.82L1174.93 117.82L1170.51 136.06M1181.94 88.92L1176.85 109.95L1193.55 109.95L1188.56 89.02Q1187.12 83.26 1186.26 79.23Q1185.39 75.20 1185.20 73.76Q1185.01 75.20 1184.14 79.23Q1183.28 83.26 1181.94 88.92M1231.18 136.06L1222.26 136.06L1222.26 65.98L1234.54 65.98L1255.47 125.12Q1255.18 122.62 1254.94 118.92Q1254.70 115.23 1254.56 111.24Q1254.42 107.26 1254.42 103.71L1254.42 65.98L1263.44 65.98L1263.44 136.06L1251.06 136.06L1230.32 76.92Q1230.51 79.42 1230.70 83.02Q1230.90 86.62 1231.04 90.56Q1231.18 94.49 1231.18 97.95L1231.18 136.06M1298.86 136.06L1280.05 136.06L1280.05 65.98L1298.86 65.98Q1305.68 65.98 1310.72 68.62Q1315.76 71.26 1318.54 76.01Q1321.33 80.76 1321.33 87.20L1321.33 114.75Q1321.33 121.18 1318.54 125.98Q1315.76 130.78 1310.72 133.42Q1305.68 136.06 1298.86 136.06M1289.55 74.43L1289.55 127.61L1298.86 127.61Q1304.91 127.61 1308.37 124.16Q1311.82 120.70 1311.82 114.75L1311.82 87.20Q1311.82 81.24 1308.37 77.84Q1304.91 74.43 1298.86 74.43L1289.55 74.43M1358.38 137.02Q1348.02 137.02 1341.87 131.60Q1335.73 126.17 1335.73 116.67L1345.23 116.67Q1345.23 122.24 1348.78 125.40Q1352.34 128.57 1358.38 128.57Q1364.14 128.57 1367.55 125.36Q1370.96 122.14 1370.96 116.76Q1370.96 112.73 1368.75 109.71Q1366.54 106.68 1362.51 105.63L1352.14 102.84Q1345.33 100.92 1341.34 95.88Q1337.36 90.84 1337.36 83.93Q1337.36 78.27 1339.90 74Q1342.45 69.72 1347.06 67.37Q1351.66 65.02 1357.71 65.02Q1363.86 65.02 1368.51 67.37Q1373.17 69.72 1375.76 73.95Q1378.35 78.17 1378.35 83.74L1368.94 83.74Q1368.94 79.13 1365.82 76.25Q1362.70 73.37 1357.71 73.37Q1352.72 73.37 1349.70 76.25Q1346.67 79.13 1346.67 83.74Q1346.67 87.48 1348.69 90.03Q1350.70 92.57 1354.35 93.63L1365.01 96.51Q1372.21 98.43 1376.24 103.85Q1380.27 109.28 1380.27 116.76Q1380.27 122.91 1377.58 127.47Q1374.90 132.03 1369.95 134.52Q1365.01 137.02 1358.38 137.02M1400.91 136.06L1391.22 136.06L1409.36 65.98L1421.94 65.98L1439.98 136.06L1430.29 136.06L1425.87 117.82L1405.33 117.82L1400.91 136.06M1412.34 88.92L1407.25 109.95L1423.95 109.95L1418.96 89.02Q1417.52 83.26 1416.66 79.23Q1415.79 75.20 1415.60 73.76Q1415.41 75.20 1414.54 79.23Q1413.68 83.26 1412.34 88.92" fill="url(#paint2_linear_0_1)"/>
<g id="Group 1">
<rect id="Rectangle 1" x="26" y="168" width="12" height="184" rx="5" fill="url(#paint3_linear_0_1)" fill-opacity="0.9"/>
</g>
<g id="Group 1_2">
<rect id="Rectangle 2" x="26" y="38" width="12" height="119" rx="5" fill="url(#paint4_linear_0_1)" fill-opacity="0.9"/>
</g>
<ellipse id="Ellipse 1" cx="148.5" cy="573" rx="215.5" ry="214" fill="url(#paint5_linear_0_1)" fill-opacity="0.4"/>
<rect id="Rectangle 3" x="1229" y="48" width="300" height="300" rx="25" fill="#FFFBFB" fill-opacity="0.9"/>
<g id="placeholder-logo"><g transform="translate(1229,48) translate(0.0,60.0) scale(1.2000)"><g fill="#666666">
  <path d="m88.05,27.65c-3.15,4 -3.2,51.2 -0.05,54.35c2.75,2.75 71.7,3.15 74.45,0.45c2.85,-2.9 2.3,-53.85 -0.65,-55.9c-1.95,-1.35 -7.15,-1.55 -36.95,-1.55l-34.7,0l-2.1,2.65zm69.45,3.35c0.65,0 1,8.6 1,23.75l0,23.75l-33,0l-33,0l-0.25,-23c-0.15,-12.6 -0.1,-23.45 0.15,-24.1c0.35,-0.85 8.9,-1.05 32.25,-0.75c17.55,0.2 32.3,0.35 32.85,0.35z"/>
  <path d="m99.15,37.3c-6.85,7.35 4.25,17.35 11.4,10.25c1.35,-1.35 2.45,-3.65 2.45,-5.05c0,-6.45 -9.35,-9.95 -13.85,-5.2z"/>
  <path d="m135,42.5c-0.7,0.85 -5.25,5.15 -10.1,9.6l-8.85,8.1l-3.2,-3.2l-3.15,-3.15l-6.35,6.3c-5.55,5.5 -6.35,6.75 -6.35,10.05l0,3.8l28.5,0l28.5,0l0,-8.6l0,-8.55l-8.15,-7.7c-9.35,-8.85 -9.15,-8.7 -10.85,-6.65zm7.25,15.2c0.95,0.9 1.75,2.9 1.75,4.45c6.35,-5.05 4.75,-7.15 4.9,-11.55c0.95,0 0,0 0,0l-6.65,7.1z"/>
  <path d="m53.65,110.75c0.1,4.8 0.45,8.65 0.75,8.5c0.35,-0.15 1.3,-0.25 2.1,-0.25c1.1,0 1.5,-1.2 1.5,-4.75l0,-4.75l3.25,5c4.9,7.5 6.2,6.75 6.55,-3.75c0.25,-8.15 0.15,-8.75 -1.7,-8.75c-1.65,0 -2.05,0.8 -2.3,4.75l-0.3,4.75l-2.8,-4.75c-4.85,-8.25 -7.25,-6.9 -7.05,4z"/>
  <path d="m91,108.9c0,9.65 0.3,10.1 6.1,10.1c5.8,0 7.15,-2.65 1.65,-3.2l-3.25,-0.3l-0.3,-6.75c-0.25,-5.95 -0.55,-6.75 -2.25,-6.75c-1.75,0 -1.95,0.7 -1.95,6.9z"/>
  <path d="m151,102.45c0,0.25 1,2.15 2.25,4.2c1.2,2.1 2.45,5.8 2.75,8.25c0.65,5.9 4,6.95 4,1.25c0.05,-2.1 1.25,-5.85 2.95,-8.9l2.9,-5.25l-2.5,0c-1.8,0 -2.8,0.85 -3.75,3.1l-1.3,3.05l-1.25,-3.05c-1.1,-2.6 -6.05,-4.8 -6.05,-2.65z"/>
  <path d="m191,107.45c0,9.05 3.4,8.85 4.25,-0.2c0.45,-5 0.35,-5.25 -1.9,-5.25c-2.2,0 -2.35,0.4 -2.35,5.45z"/>
  <path d="m180.8,104.75c-1.3,5.35 0.65,13.6 3.45,14.35c2.3,0.6 2.75,0.4 2.75,-1.2c0,-1.05 -0.45,-1.9 -1,-1.9c-0.55,0 -1,-1.6 -1,-3.5c0,-1.95 0.45,-3.5 1,-3.5c0.55,0 1,-0.7 1,-1.5c0,-0.85 -0.45,-1.5 -1,-1.5c-0.55,0 -1,-0.7 -1,-1.5c0,-2.1 -3.65,-1.9 -4.2,0.25z"/>
  <path d="m71.55,106.55c-2.2,2.25 -2.05,9.7 0.3,11.8c4.5,4.1 10.15,0.75 10.15,-6.1c0,-4.85 -2,-7.25 -6,-7.25c-1.55,0 -3.55,0.7 -4.45,1.55zm6.25,5.8c0.25,3.05 0,3.65 -1.6,3.65c-2.3,0 -3.25,-2.65 -2.05,-5.85c1.25,-3.35 3.3,-2.1 3.65,2.2z"/>
  <path d="m105.75,106.1c-2.5,1.45 -2.45,9.95 0.1,12.25c4.3,3.9 10.15,0.35 10.15,-6.2c0,-6 -5.15,-9.05 -10.25,-6.05zm6.05,6.25c0.25,3.05 0,3.65 -1.6,3.65c-2.3,0 -3.25,-2.65 -2.05,-5.85c1.25,-3.35 3.3,-2.1 3.65,2.2z"/>
  <path d="m119.2,106.2c-3.8,3.8 -0.4,12.55 4.4,11.35c1.9,-0.45 2.45,-0.3 2.15,0.65c-0.25,0.7 -1.55,1.2 -2.85,1.1c-4.05,-0.3 -5.35,0.45 -3.85,2.25c0.85,1.05 2.6,1.45 5.35,1.25l4.1,-0.3l0.3,-8.75l0.3,-8.75l-4.35,0c-2.4,0 -4.9,0.55 -5.55,1.2zm6.6,4.45c0.4,2.85 -2.15,4.85 -3.75,2.95c-0.9,-1.1 -0.9,-2 -0.05,-3.6c1.35,-2.5 3.4,-2.15 3.8,0.65z"/>
  <path d="m133.55,106.55c-2.2,2.25 -2.05,9.7 0.3,11.8c4.5,4.1 10.15,0.75 10.15,-6.1c0,-4.85 -2,-7.25 -6,-7.25c-1.55,0 -3.55,0.7 -4.45,1.55zm6.25,5.8c0.25,3.05 0,3.65 -1.6,3.65c-2.3,0 -3.25,-2.65 -2.05,-5.85c1.25,-3.35 3.3,-2.1 3.65,2.2z"/>
  <path d="m167.65,106.85c-3.9,4.3 -0.75,13.15 4.7,13.15c2.4,0 5.65,-2.75 5.65,-4.85c0,-1.4 -2.65,-1.55 -3.5,-0.15c-0.95,1.55 -4.5,1.15 -4.5,-0.5c0,-1.1 1.1,-1.5 4,-1.5c3.15,0 4,-0.35 4,-1.8c0,-5.3 -6.85,-8.25 -10.35,-4.35z"/>
  <path d="m191,117.5c0,2.15 0.4,2.6 2.25,2.3c1.5,-0.2 2.25,-1 2.25,-2.3c0,-1.3 -0.75,-2.1 -2.25,-2.3c-1.85,-0.3 -2.25,0.15 -2.25,2.3z"/>
 </g></g></g>
</g>
<defs>
<linearGradient id="paint0_linear_0_1" x1="0" y1="198" x2="1584" y2="198" gradientUnits="userSpaceOnUse">
<stop stop-color="#3D052C"/>
<stop offset="1"/>
</linearGradient>
<linearGradient id="paint1_linear_0_1" x1="323" y1="-224" x2="323" y2="352" gradientUnits="userSpaceOnUse">
<stop stop-color="#28F6F2" stop-opacity="0.4"/>
<stop offset="1" stop-color="#17908E" stop-opacity="0.7"/>
</linearGradient>
<linearGradient id="paint2_linear_0_1" x1="148.5" y1="38" x2="148.5" y2="140" gradientUnits="userSpaceOnUse">
<stop stop-color="white"/>
<stop offset="1" stop-color="#999999"/>
</linearGradient>
<linearGradient id="paint3_linear_0_1" x1="38" y1="260" x2="26" y2="260" gradientUnits="userSpaceOnUse">
<stop stop-color="#D9D9D9"/>
<stop offset="1" stop-color="#737373"/>
</linearGradient>
<linearGradient id="paint4_linear_0_1" x1="38" y1="97.5" x2="26" y2="97.5" gradientUnits="userSpaceOnUse">
<stop stop-color="#D9D9D9"/>
<stop offset="1" stop-color="#737373"/>
</linearGradient>
<linearGradient id="paint5_linear_0_1" x1="27.5" y1="434.5" x2="148.5" y2="787" gradientUnits="userSpaceOnUse">
<stop stop-color="#2E21BC"/>
<stop offset="1" stop-color="#150F56"/>
</linearGradient>
<clipPath id="clip0_0_1">
<rect width="1584" height="396" fill="white"/>
</clipPath>
</defs>
</svg>
